<?xml version="1.0" encoding="UTF-8"?>
<svg id="_图层_1" data-name="图层 1" xmlns="http://www.w3.org/2000/svg" viewBox="35 135 210 50">
  <defs>
    <style>
      .cls-1 {
        fill: #0055a2;
        fill-rule: evenodd;
      }
    </style>
  </defs>
  <path class="cls-1" d="M37.51,175.83l2.81-5.9c.81,2.23,2.89,3.35,3.62,3.5,4.09.86,9.5.07,9.6-2.46.29-7.66-15.79-5.18-15.5-16.17.04-1.67.67-3.45,1.81-4.8,2.22-2.59,6.47-3.95,11.41-3.95,2.83,0,6.04.76,8.66,2.14l-2.74,4.5c-1.83-2.93-4.4-3.12-6.31-3.2-1.28-.06-3.38.17-4.65,1.61-.35.47-.76,1.48-.43,2.61.24.81,1.31,2.07,2.33,2.85,1.01.79,2.14,1.38,5.37,2.76,3.95,1.66,5,3.05,6.23,4.28,1.43,1.86,1.76,2.85,1.81,4.8.04,1.73-1.07,3.33-2.19,4.8-2.24,2.62-7.02,4.09-12.27,4.09-1.89,0-2.83.16-4.38-.19-1.55-.35-3.24-.42-5.18-1.28Z"/>
  <path class="cls-1" d="M65.96,146.88h21.55l.09,4.03s-1.57-.21-2.09-.28c-2.41-.31-11.15-.58-11.15-.58v9.12h10.63s-.02,3.76-.02,3.76h-10.62s0,10.76,0,10.76c0,0,6.92.2,9.9-.21,1.77-.25,3.31-.59,3.31-.59v3.94h-21.57l-.03-29.93Z"/>
  <path class="cls-1" d="M128.69,146.49h29.11v4.63s-1.52-.11-2.07-.11c-2.03,0-8.21-.11-8.21-.11v26.02l-8.31-.23.03-25.93s-6.04.19-8.09.29c-1.35.06-2.46.15-2.46.15v-4.71Z"/>
  <path class="cls-1" d="M182.47,146.01c6.34,0,10.1,1,13.82,3.47,4.07,2.74,6.85,7.47,6.85,12.7s-1.95,9.1-5.83,11.84c-3.67,2.59-8.83,3.89-15.46,3.89s-12.16-1.39-15.68-4.15c-3.61-2.83-5.42-6.77-5.42-11.82,0-3.2.86-5.99,2.58-8.36,3.36-4.65,10.08-7.52,19.13-7.58h0ZM181.45,148.75c-15.54,0-16.46,26.08.5,26.08,14.1,0,17.56-26.08-.5-26.08Z"/>
  <polygon class="cls-1" points="210.56 155.76 210.56 176.97 205.87 176.97 205.87 146.41 211.89 146.41 235.68 167.29 235.65 146.92 240.5 146.92 240.52 176.97 235.93 176.97 210.56 155.76"/>
  <path class="cls-1" d="M94.58,177.16l1.41-5.16c-1.07.13-4.06-.08-5.83-2.31-3.67-6.37,2.73-14.6,11.84-21.53l4.71-17.8h12.4s2.28,8,2.28,8c.14-.05,1.34-.25,1.48-.31,2.6-.42,3.87,1.42,3.4,3.54-.32,1.27-1.34,1.55-3.02,2.02l10.83,33.54-12.33.08-8.75-29.17c-2.57,1.32-5.25,2.86-7.58,4.5l-3.33,15.67c5.57-1.33,9.23-2.56,15.28-5.71l.38,1.34c-.09.7-11.09,6.84-16.13,7.58l-1.35,6M95.12,157.01c-.27.39.13.46.42.21l.34-.38,2.05-1.9c7.17-6.2,14.32-10.67,22.5-12.75,1.52-.39,3.25-.31,3.69-1.19.38-1,.01-2.18-2.31-1.69-4.55,1.13-18.14,8.68-24.71,15.52-.34.36-.68.72-1.01,1.08-.25.27-.49.54-.72.81-.08.09-.17.19-.25.28h0ZM97.1,168.27l2.9-11.6c-.41.5-.6.48-3.53,4.12-2.44,3.03-2.41,5.9-.31,7.18.48.19.76.26.94.31ZM111.44,142.5l-2.31-7.5-2.15,9.95c1.34-.72,3.11-1.8,4.46-2.45Z"/>
</svg>
